<svg width="20" height="12" viewBox="0 0 20 12" fill="none" xmlns="http://www.w3.org/2000/svg">
<path fill-rule="evenodd" clip-rule="evenodd" d="M15.6798 12C16.7336 12 17.5879 11.1841 17.5879 10.1777C17.5879 9.17119 16.7336 8.3553 15.6798 8.3553C14.626 8.3553 13.7718 9.17119 13.7718 10.1777C13.7718 11.1841 14.626 12 15.6798 12ZM15.6798 9.38682C16.1371 9.38682 16.5079 9.74089 16.5079 10.1777C16.5079 10.6144 16.1371 10.9685 15.6798 10.9685C15.2225 10.9685 14.8518 10.6144 14.8518 10.1777C14.8518 9.74089 15.2225 9.38682 15.6798 9.38682Z" fill="#AFAFAF"/>
<path fill-rule="evenodd" clip-rule="evenodd" d="M4.35617 12C5.40997 12 6.26425 11.1841 6.26425 10.1777C6.26425 9.17119 5.40997 8.3553 4.35617 8.3553C3.30238 8.3553 2.4481 9.17119 2.4481 10.1777C2.4481 11.1841 3.30238 12 4.35617 12ZM4.35617 9.38682C4.81349 9.38682 5.18421 9.74089 5.18421 10.1777C5.18421 10.6144 4.81349 10.9685 4.35617 10.9685C3.89886 10.9685 3.52814 10.6144 3.52814 10.1777C3.52814 9.74089 3.89886 9.38682 4.35617 9.38682Z" fill="#AFAFAF"/>
<path fill-rule="evenodd" clip-rule="evenodd" d="M18.3439 10.9685L20 10.5559V7.32378C20 6.56734 19.317 6.18941 18.6319 5.78878C17.5275 5.14286 16.1478 4.5043 16.1478 4.5043L13.7718 1.71429C12.8907 0.72428 12.3065 0 10.8556 0H1.15205C0.396016 0 0 0.687679 0 1.23782V10.5559L1.69207 10.9685H1.86117C1.77482 10.7198 1.72807 10.454 1.72807 10.1777C1.72807 8.7914 2.90471 7.66762 4.35617 7.66762C5.80764 7.66762 6.98428 8.7914 6.98428 10.1777C6.98428 10.454 6.93753 10.7198 6.85118 10.9685H13.1848C13.0985 10.7198 13.0517 10.454 13.0517 10.1777C13.0517 8.7914 14.2284 7.66762 15.6798 7.66762C17.1313 7.66762 18.3079 8.7914 18.3079 10.1777C18.3079 10.454 18.2612 10.7198 18.1748 10.9685H18.3439ZM9.8836 1.71429V4.5043H14.8518L12.673 1.71429H9.8836Z" fill="#AFAFAF"/>
</svg>
